<?xml version="1.0" standalone="no"?>
<!DOCTYPE svg PUBLIC "-//W3C//DTD SVG 20010904//EN"
 "http://www.w3.org/TR/2001/REC-SVG-20010904/DTD/svg10.dtd">
<svg version="1.0" xmlns="http://www.w3.org/2000/svg"
 width="400.000000pt" height="400.000000pt" viewBox="0 0 400.000000 400.000000"
 preserveAspectRatio="xMidYMid meet">
<metadata>
Created by potrace 1.14, written by Peter Selinger 2001-2017
</metadata>
<g transform="translate(0.000000,400.000000) scale(0.100000,-0.100000)"
fill="#000000" stroke="none">
<path d="M1897 3944 c-1 -1 -33 -4 -70 -8 -97 -9 -129 -15 -247 -43 -58 -13
-114 -26 -124 -28 -36 -8 -121 -37 -211 -73 -231 -92 -502 -281 -675 -471
-171 -188 -338 -463 -405 -666 -22 -66 -61 -217 -81 -310 -46 -220 -47 -457
-3 -680 11 -55 22 -111 25 -125 3 -14 9 -38 14 -55 5 -16 19 -61 30 -100 12
-38 24 -77 27 -85 3 -8 7 -21 9 -28 4 -23 112 -236 138 -275 14 -21 26 -40 26
-43 0 -2 38 -56 85 -119 105 -142 202 -245 322 -342 286 -230 522 -337 916
-417 167 -35 449 -40 582 -13 11 3 40 8 65 12 25 3 77 15 115 25 39 10 84 21
100 23 55 10 206 66 311 116 182 87 382 229 530 376 186 185 365 463 449 695
24 70 79 276 91 345 23 138 30 195 27 213 -1 12 0 22 5 22 9 0 8 172 -2 188
-4 7 -2 12 6 12 8 0 9 3 3 8 -5 4 -11 18 -11 32 -3 47 -15 145 -19 160 -2 8
-7 29 -10 45 -3 17 -7 35 -9 40 -1 6 -6 28 -10 50 -74 384 -318 789 -636 1056
-212 178 -518 341 -720 384 -8 1 -33 8 -55 13 -22 6 -76 18 -120 27 -44 9 -87
18 -95 20 -61 12 -362 28 -373 19z"/>
</g>
</svg>
